<?xml version="1.0" standalone="no"?>
<!DOCTYPE svg PUBLIC "-//W3C//DTD SVG 20010904//EN"
 "http://www.w3.org/TR/2001/REC-SVG-20010904/DTD/svg10.dtd">
<svg version="1.0" xmlns="http://www.w3.org/2000/svg"
 width="920.000000pt" height="512.000000pt" viewBox="0 0 920.000000 512.000000"
 preserveAspectRatio="xMidYMid meet">

<g transform="translate(0.000000,512.000000) scale(0.100000,-0.100000)"
fill="#000000" stroke="none">
<path d="M3170 3870 c0 -13 29 -59 53 -82 9 -10 17 -22 17 -27 0 -4 11 -6 25
-3 15 2 25 0 25 -7 0 -6 3 -10 8 -10 4 1 9 1 12 -1 3 -1 16 -4 30 -6 13 -2 27
-8 30 -13 3 -5 20 -12 38 -16 17 -3 32 -10 32 -14 0 -4 16 -13 36 -20 19 -7
38 -19 40 -26 3 -8 11 -12 17 -10 7 2 37 -11 67 -30 30 -19 70 -42 88 -51 17
-9 32 -20 32 -25 0 -5 13 -15 28 -23 41 -21 86 -66 107 -106 17 -34 17 -35 -1
-19 -11 9 -26 19 -34 24 -8 4 -1 -4 15 -19 17 -14 36 -23 44 -20 11 4 11 2 2
-10 -7 -8 -10 -20 -6 -26 4 -6 -1 -17 -10 -24 -15 -11 -15 -13 -1 -25 9 -8 16
-23 15 -35 0 -20 -1 -20 -9 2 -8 19 -13 21 -30 12 -16 -9 -18 -8 -14 5 3 8 11
12 17 8 5 -3 7 -1 4 4 -9 15 -56 22 -64 10 -3 -5 -2 -7 3 -4 6 3 16 2 24 -4
12 -7 11 -9 -4 -9 -18 0 -17 -3 9 -30 15 -16 32 -27 37 -24 4 3 8 -1 8 -8 0
-7 17 -31 38 -53 21 -22 51 -58 67 -80 20 -28 9 -20 -33 25 -86 90 -136 140
-143 140 -10 0 -6 -35 4 -42 6 -3 12 -14 13 -24 2 -12 0 -14 -9 -5 -6 6 -22
11 -37 11 -18 0 -21 -3 -11 -9 7 -5 11 -15 9 -22 -3 -9 -10 -7 -26 9 -12 12
-22 17 -22 11 0 -5 -6 -7 -12 -3 -8 5 -7 0 2 -11 14 -17 13 -17 -9 -10 -18 5
-22 4 -16 -6 6 -9 4 -10 -8 -6 -49 20 -51 20 -27 -2 14 -12 20 -20 13 -17 -22
11 -24 -13 -3 -34 16 -16 19 -25 11 -34 -6 -7 -7 -17 -3 -22 13 -16 -33 20
-57 44 -34 34 -21 37 16 3 18 -16 34 -26 37 -23 9 8 -25 42 -41 42 -7 0 -13 4
-13 9 0 5 -12 11 -27 14 -41 8 -65 29 -57 50 3 9 10 14 15 11 5 -3 9 2 9 10 0
9 -4 16 -9 16 -5 0 -16 7 -25 15 -12 12 -20 13 -41 3 -15 -7 -24 -17 -21 -25
3 -8 1 -11 -4 -8 -6 4 -10 -7 -9 -27 1 -31 1 -32 9 -8 4 14 8 19 9 11 1 -8 8
-11 21 -8 11 3 18 1 14 -4 -3 -5 -13 -9 -22 -10 -11 0 -13 -2 -4 -6 9 -4 10
-8 2 -18 -8 -10 -6 -17 8 -27 10 -7 22 -19 26 -26 7 -11 4 -12 -12 -3 -11 6
-23 16 -25 23 -11 27 -27 -18 -28 -79 -3 -88 -3 -87 -16 -96 -7 -4 -13 -21
-13 -38 0 -36 -27 -80 -45 -73 -7 3 -16 1 -20 -5 -3 -6 0 -9 8 -5 8 3 20 -2
27 -11 11 -13 10 -14 -5 -9 -13 5 -16 4 -11 -5 9 -13 -27 -54 -38 -44 -3 4 -6
-3 -6 -15 0 -18 4 -20 23 -13 12 4 33 5 47 1 22 -6 21 -7 -17 -14 -30 -6 -43
-13 -47 -29 -8 -30 -7 -47 2 -45 4 0 15 -2 24 -6 22 -10 14 -26 -13 -26 -10 0
-19 -4 -19 -10 0 -5 4 -10 10 -10 5 0 12 -11 16 -25 3 -14 10 -23 14 -20 8 5
6 -38 -6 -92 -6 -31 -5 -33 22 -33 21 0 25 -3 15 -9 -8 -5 -20 -7 -27 -4 -6 2
-15 -1 -19 -7 -4 -7 -1 -10 8 -8 9 2 16 0 16 -4 2 -23 0 -29 -9 -23 -14 8 -13
3 6 -35 12 -23 19 -29 25 -19 14 23 22 1 11 -31 -6 -17 -8 -29 -4 -26 4 2 13
-2 20 -10 7 -8 9 -14 5 -14 -15 0 -34 -53 -22 -61 6 -4 8 -16 4 -28 -5 -16 -2
-21 12 -21 14 0 15 -2 4 -9 -21 -13 -5 -41 24 -41 21 0 25 -5 25 -30 0 -20 5
-30 15 -30 8 0 15 -5 15 -12 0 -6 -3 -9 -6 -5 -11 11 -29 -17 -31 -46 l-1 -29
27 24 c63 58 78 71 118 101 33 23 40 33 32 44 -6 7 -15 10 -20 7 -5 -3 -6 2
-3 11 4 9 13 14 20 11 8 -3 14 0 14 6 0 6 12 21 27 34 29 25 17 26 -35 5 -18
-8 -31 -19 -29 -25 13 -34 -31 -58 -63 -35 -13 9 -12 10 3 5 13 -4 17 0 17 19
0 16 6 25 16 25 9 0 28 10 42 21 25 21 26 22 5 16 -13 -3 -23 -1 -23 4 0 5 4
9 8 9 5 0 17 8 28 18 10 10 27 21 37 25 10 4 16 11 13 16 -4 5 13 16 36 24 36
13 39 16 17 16 -25 1 -26 3 -19 35 7 32 6 34 -17 30 -16 -3 -22 -1 -18 6 4 6
26 10 49 9 37 -2 48 2 73 28 23 24 28 34 19 44 -8 9 -5 10 14 5 48 -14 65 -12
70 8 7 26 24 30 43 12 8 -8 17 -12 21 -9 3 4 6 1 6 -6 0 -7 4 -10 9 -7 5 3 14
-1 21 -9 8 -10 9 -15 2 -15 -6 0 -9 -7 -5 -16 4 -12 0 -14 -23 -10 l-29 6 28
-12 c28 -12 36 -27 15 -29 -13 -1 -20 -2 -98 -16 -41 -7 -37 -8 50 -13 104 -5
153 -1 148 15 -2 6 -20 10 -41 10 -20 0 -37 2 -37 3 0 2 9 15 20 29 11 14 18
29 15 33 -3 4 11 10 31 12 30 4 40 -1 65 -29 16 -19 29 -38 29 -44 0 -6 5 -7
10 -4 6 4 29 -10 50 -31 35 -34 38 -40 25 -54 -8 -9 -12 -20 -8 -23 3 -4 -2
-7 -13 -8 -19 0 -19 -1 0 -8 17 -6 15 -9 -12 -20 -17 -7 -38 -24 -47 -37 -15
-24 -15 -24 19 -24 19 0 38 -5 41 -10 4 -6 10 -8 15 -5 5 3 11 1 15 -5 4 -6
12 -7 18 -3 22 14 49 14 42 1 -4 -7 3 -2 14 12 17 20 20 21 14 5 -6 -18 -5
-18 10 -6 14 11 20 11 32 1 8 -7 15 -10 15 -6 0 3 12 1 28 -4 24 -9 25 -8 10
4 -10 7 -18 16 -18 20 0 11 -22 31 -49 45 -17 10 -22 19 -18 37 4 24 4 24 -16
7 -16 -14 -19 -14 -15 -3 3 8 2 24 -2 34 -5 14 3 29 31 57 20 20 46 40 58 44
12 3 26 15 32 27 10 19 11 19 30 2 18 -16 20 -16 37 -1 10 10 22 17 27 17 5 0
0 -6 -10 -14 -16 -12 -17 -16 -6 -30 10 -11 10 -16 2 -16 -7 0 -9 -6 -5 -12 6
-10 4 -10 -7 0 -7 6 -19 12 -27 12 -12 0 -12 -3 -1 -16 7 -9 22 -14 36 -11 13
2 23 0 23 -5 0 -5 4 -7 8 -4 9 5 102 -8 140 -19 14 -5 22 -3 22 4 0 6 -19 14
-42 17 -41 7 -41 7 -20 25 27 21 28 29 5 29 -16 1 -16 2 2 16 19 15 19 15 -10
10 -16 -4 -23 -3 -15 0 8 4 25 18 37 32 l23 25 20 -23 c11 -13 20 -18 20 -12
0 19 90 2 133 -25 20 -13 37 -28 37 -34 0 -7 14 -8 40 -4 26 4 40 3 40 -4 0
-6 -9 -11 -20 -11 -11 0 -20 -2 -20 -5 0 -13 27 -62 40 -73 32 -27 91 -62 108
-65 25 -4 75 -37 68 -44 -3 -3 -12 0 -21 7 -13 11 -14 10 -9 -5 5 -12 4 -16
-3 -12 -6 4 -14 0 -17 -9 -5 -13 -2 -15 14 -11 11 3 18 1 14 -4 -3 -5 1 -9 9
-9 8 0 25 -8 38 -18 17 -15 19 -21 9 -27 -8 -5 -11 -4 -7 2 4 6 0 14 -9 17
-23 9 -28 7 -16 -7 7 -8 6 -19 -3 -37 -16 -28 -19 -60 -7 -60 5 0 9 -6 9 -14
0 -8 -6 -12 -15 -8 -11 4 -13 2 -7 -9 7 -11 6 -12 -6 -3 -16 13 -49 15 -49 3
0 -9 -33 -4 -53 7 -6 4 -4 -2 6 -13 22 -25 22 -40 0 -22 -15 13 -15 12 -4 -9
9 -17 9 -22 0 -20 -16 4 -21 -45 -8 -80 l9 -27 -25 30 c-14 17 -25 24 -25 16
0 -11 -3 -11 -15 -1 -10 9 -15 9 -15 1 0 -6 -7 -11 -16 -11 -9 0 -12 5 -8 13
4 6 -2 3 -13 -8 -11 -11 -19 -23 -16 -27 2 -5 -2 -8 -11 -8 -8 0 -16 -5 -18
-11 -3 -8 -14 -6 -37 6 -33 17 -34 17 -28 -4 3 -13 1 -19 -6 -14 -6 4 -8 -2
-4 -18 6 -23 5 -23 -8 -5 -8 11 -15 23 -15 28 0 4 -7 8 -15 8 -8 0 -14 -3 -14
-7 4 -25 -3 -35 -21 -30 -11 3 -20 1 -20 -3 0 -4 -19 -6 -42 -3 -32 3 -39 2
-28 -6 11 -8 12 -11 2 -11 -8 0 -10 -5 -6 -12 5 -9 2 -8 -9 1 -15 12 -19 12
-31 -5 -8 -10 -18 -16 -22 -11 -4 4 -2 7 4 7 7 0 12 4 12 10 0 5 -7 7 -15 4
-8 -4 -22 -1 -30 6 -13 11 -18 10 -30 -6 -8 -10 -15 -25 -15 -31 0 -7 -11 -13
-25 -13 -16 0 -25 -6 -25 -16 0 -13 3 -14 14 -5 11 10 16 8 21 -8 4 -12 15
-21 26 -21 12 0 27 -13 37 -31 9 -17 22 -38 29 -47 11 -15 12 -13 13 15 0 24
-4 31 -14 27 -10 -4 -13 3 -11 24 2 33 12 52 26 52 6 0 7 -5 3 -12 -5 -7 -3
-8 6 -3 23 14 94 6 108 -12 6 -9 12 -11 12 -5 0 7 5 12 11 12 7 0 9 -10 5 -25
-5 -19 -2 -27 11 -32 40 -15 60 -70 22 -60 -16 4 -19 2 -15 -10 5 -13 4 -14
-8 -4 -8 7 -19 10 -25 7 -5 -3 -11 -1 -13 6 -3 9 -12 9 -36 -1 -18 -7 -41 -11
-52 -8 -15 4 -20 0 -21 -16 -1 -20 -2 -20 -9 3 -4 14 -8 19 -9 13 -1 -19 -19
-16 -24 5 -4 14 -5 14 -6 -3 -1 -17 -3 -18 -11 -5 -8 13 -10 12 -10 -3 0 -10
-4 -15 -10 -12 -5 3 -10 2 -10 -3 0 -8 -72 -7 -114 3 -28 6 -59 -13 -52 -32 6
-14 4 -14 -16 0 -13 8 -22 22 -22 30 1 13 -2 13 -17 4 -10 -6 -16 -14 -13 -18
2 -4 -5 -11 -17 -14 -14 -5 -25 -2 -30 6 -7 11 -9 10 -9 -3 0 -10 -5 -18 -11
-18 -14 0 -2 52 14 62 9 6 9 8 0 8 -6 0 -15 -5 -18 -10 -4 -6 -10 -8 -15 -5
-4 3 -13 -2 -20 -10 -7 -8 -16 -12 -21 -9 -5 3 -9 0 -9 -7 0 -7 -2 -10 -5 -7
-3 3 -19 -7 -35 -23 -16 -16 -36 -29 -45 -29 -9 0 -25 -9 -37 -20 -12 -10 -25
-17 -29 -14 -5 3 -6 -2 -3 -10 4 -10 1 -16 -7 -16 -7 0 -24 -10 -37 -22 -22
-21 -24 -21 -15 -3 13 26 3 53 -19 50 -14 -3 -14 1 4 31 20 34 12 47 -11 20
-7 -8 -20 -14 -30 -13 -14 1 -15 6 -7 33 6 17 15 31 21 30 5 -2 7 -1 2 1 -4 3
-5 8 -2 13 12 20 -42 -5 -61 -28 -11 -14 -26 -23 -32 -21 -14 5 49 79 67 79 6
0 9 -6 6 -12 -4 -7 0 -5 8 5 15 18 16 18 26 0 11 -17 11 -17 25 1 8 10 19 15
24 12 5 -3 15 1 22 9 7 8 18 15 24 15 22 0 59 48 53 69 -3 11 1 25 8 31 8 6
11 18 8 26 -4 11 0 15 12 12 10 -2 20 3 23 11 7 22 -38 2 -87 -38 -29 -23 -46
-32 -48 -23 -3 6 -11 12 -19 12 -21 0 -17 17 8 34 19 14 20 16 5 22 -10 3 -28
-1 -42 -10 -30 -20 -46 -21 -39 -1 5 11 0 12 -25 5 -30 -8 -30 -8 -19 13 20
36 17 55 -6 49 -12 -3 -28 -10 -36 -16 -11 -9 -11 -5 2 15 l17 26 -30 -3 c-17
-2 -36 -7 -42 -11 -8 -4 -7 -1 1 9 15 19 0 34 -20 21 -7 -4 -21 -9 -32 -10
-16 -3 -17 -1 -6 12 21 25 -9 18 -32 -7 -22 -26 -14 -7 16 37 23 33 31 65 16
65 -6 0 -10 -5 -10 -11 0 -5 -4 -8 -9 -5 -4 3 -16 -3 -26 -14 -10 -11 -14 -20
-9 -20 5 0 1 -5 -9 -11 -30 -18 -28 -6 9 36 31 37 49 74 22 47 -7 -7 -19 -12
-27 -12 -12 0 -12 3 2 18 14 16 13 19 -8 46 l-23 29 -39 -32 c-66 -55 -113
-105 -113 -118 0 -7 -5 -13 -11 -13 -6 0 -9 -9 -6 -19 3 -12 -1 -22 -9 -25
-18 -7 -18 -40 1 -56 17 -14 35 -5 35 16 0 8 -4 12 -10 9 -5 -3 -10 -2 -10 3
0 6 7 12 15 16 8 3 20 17 27 31 6 14 15 25 20 25 5 0 2 -12 -5 -27 -8 -16 -18
-39 -21 -53 -7 -24 -7 -24 9 -5 13 16 19 17 34 8 16 -10 23 -7 46 20 l26 32
-22 -40 c-26 -46 -64 -92 -53 -62 9 25 -30 23 -56 -3 -16 -16 -20 -17 -20 -5
0 24 -17 17 -22 -9 -4 -21 0 -25 28 -29 51 -8 65 -26 48 -59 -7 -14 -19 -28
-25 -30 -12 -4 -39 -72 -39 -100 0 -16 2 -16 20 2 27 27 38 25 32 -5 -2 -14
-8 -25 -14 -25 -5 0 -18 -9 -30 -20 -28 -26 -14 -26 23 1 16 11 33 17 39 14 5
-3 10 -2 10 4 0 6 7 8 15 5 17 -7 21 -43 5 -45 -5 -1 -13 -3 -17 -4 -5 -1 -22
-6 -40 -10 -20 -5 -30 -12 -26 -20 5 -16 38 -12 60 7 13 10 15 9 12 -7 -3 -13
-15 -22 -34 -25 l-30 -6 23 -14 c12 -8 22 -21 22 -29 0 -10 8 -12 30 -7 17 3
30 1 30 -4 0 -6 -11 -10 -24 -10 -13 0 -29 -7 -36 -15 -21 -25 9 -18 65 15 52
31 71 37 60 20 -3 -5 -2 -10 4 -10 23 0 -3 -28 -45 -48 -60 -29 -68 -28 -19 4
29 18 33 23 15 18 -40 -10 -70 -33 -70 -53 0 -29 11 -31 38 -5 15 13 32 24 38
24 6 0 23 11 38 25 14 13 33 22 41 19 17 -7 20 -24 5 -24 -5 0 -10 -5 -10 -12
0 -6 9 -3 21 8 12 10 36 20 55 20 37 2 38 1 24 -26 -8 -15 -6 -17 10 -13 11 3
20 10 20 15 0 7 5 6 13 -1 9 -7 17 -7 24 0 10 10 13 2 15 -64 l1 -37 26 16
c17 12 26 14 29 5 2 -6 8 -9 12 -6 5 3 7 -4 5 -15 -2 -11 1 -20 7 -20 15 0 68
33 68 42 0 4 7 8 15 8 8 0 23 9 32 20 10 11 21 20 26 20 5 0 20 9 34 20 14 11
34 20 43 20 10 0 21 7 24 16 4 9 13 14 22 10 8 -3 13 -2 11 2 -4 8 24 36 41
40 17 3 15 -14 -4 -32 -15 -15 -8 -22 19 -17 5 1 6 -3 2 -9 -8 -14 -17 -51
-17 -73 1 -9 -3 -15 -7 -13 -4 3 -17 -1 -27 -9 -18 -13 -18 -14 6 -8 14 3 32
12 41 20 9 7 24 11 33 7 19 -7 20 -1 2 51 -17 48 -11 65 21 65 13 0 22 4 19 9
-4 5 3 7 14 4 11 -3 20 -12 20 -19 0 -10 7 -13 25 -8 17 4 25 2 25 -7 0 -12 2
-12 9 0 7 11 10 9 15 -7 4 -11 15 -22 26 -25 14 -3 17 -1 13 12 -3 9 -1 12 4
6 13 -16 44 -11 55 9 9 16 8 18 -7 12 -15 -5 -16 -4 -6 8 13 15 41 11 41 -5 0
-5 11 -7 25 -3 25 6 56 -17 68 -49 2 -7 8 -9 12 -5 4 4 3 14 -4 21 -9 11 -8
17 3 26 10 9 16 9 21 1 4 -6 16 -8 27 -4 11 3 18 2 15 -3 -3 -5 -2 -15 2 -22
6 -8 12 -3 21 18 7 17 16 28 21 26 4 -3 13 4 19 15 8 15 17 19 31 15 14 -5 19
-2 19 14 0 24 43 39 63 22 10 -8 17 -7 25 1 9 9 17 7 33 -7 11 -11 19 -15 18
-10 -2 6 5 24 15 40 9 17 15 22 12 12 -4 -13 -2 -16 7 -10 19 12 41 13 48 1 3
-5 11 4 17 21 7 18 7 29 2 26 -6 -4 -10 -1 -10 5 0 8 7 9 18 5 42 -18 62 -18
63 1 1 11 1 23 0 27 -1 5 3 6 8 3 11 -7 2 -48 -12 -57 -5 -4 -10 -20 -11 -37
-1 -28 -2 -29 -17 -14 -9 10 -12 20 -7 23 5 3 2 9 -7 12 -9 4 -13 3 -10 -3 3
-6 1 -10 -5 -10 -7 0 -5 -7 4 -16 18 -18 21 -28 5 -18 -8 4 -9 -1 -4 -17 l7
-24 -21 23 c-24 24 -41 31 -21 7 6 -8 9 -19 5 -25 -4 -6 -1 -18 6 -26 19 -23
3 -28 -20 -5 -11 11 -18 27 -15 35 3 8 -3 19 -15 26 -12 6 -20 7 -19 3 1 -4
-4 -18 -11 -31 -10 -19 -15 -21 -27 -11 -8 6 -17 9 -21 5 -3 -3 -1 -6 5 -6 7
0 12 -13 12 -30 0 -19 5 -30 14 -30 8 0 18 -5 22 -12 4 -7 3 -8 -4 -4 -7 4
-12 2 -12 -3 0 -6 9 -16 20 -23 11 -7 20 -16 20 -20 0 -16 -20 -7 -43 18 -21
22 -25 23 -37 10 -8 -10 -9 -16 -2 -16 6 0 9 -6 7 -13 -3 -6 4 -18 15 -25 21
-13 21 -12 5 19 -9 17 -14 33 -12 36 11 10 36 -59 29 -78 -8 -20 -8 -20 -26 0
-25 27 -36 26 -36 -1 0 -19 -2 -20 -11 -8 -8 11 -9 9 -3 -10 3 -14 12 -31 18
-39 9 -12 8 -13 -3 -6 -9 5 -19 2 -27 -10 -12 -17 -15 -16 -44 15 -16 17 -30
28 -30 24 0 -5 -4 -3 -9 4 -6 10 -10 8 -14 -8 -3 -12 -3 -19 0 -16 14 13 33
-19 33 -55 0 -29 4 -39 16 -39 8 0 12 5 9 10 -3 6 1 10 9 10 9 0 16 -9 16 -20
0 -11 4 -20 8 -20 4 0 8 -9 9 -20 1 -11 -2 -18 -8 -15 -5 4 -9 13 -9 21 0 8
-9 14 -20 14 -16 0 -20 -7 -20 -31 l0 -32 -25 27 c-35 38 -64 30 -50 -14 10
-32 65 -39 330 -40 138 -1 385 -3 550 -5 190 -2 306 0 318 7 13 7 23 6 30 -1
7 -7 84 -11 228 -11 l217 0 6 27 c8 37 5 93 -4 88 -4 -3 -7 7 -7 20 0 14 3 25
7 25 11 0 9 53 -2 68 -7 8 -7 17 2 27 18 21 5 45 -24 45 -30 0 -39 13 -38 51
0 18 -7 35 -21 46 -13 10 -21 26 -19 36 3 12 -3 17 -21 17 -32 0 -57 9 -57 21
0 5 12 7 28 3 19 -4 23 -3 13 4 -11 8 -11 10 0 15 9 3 1 10 -18 17 -30 11 -33
16 -33 55 0 38 -4 45 -38 68 -37 24 -38 27 -37 81 0 30 6 61 13 68 22 22 13
62 -20 83 -17 11 -42 41 -57 67 -14 27 -40 58 -56 69 -28 20 -65 81 -65 107 0
6 -7 9 -16 5 -14 -5 -16 -2 -10 20 3 14 1 29 -4 32 -6 4 -8 11 -5 16 4 5 -3 9
-15 9 -12 0 -18 -5 -15 -10 6 -9 -16 -40 -28 -40 -2 0 -4 11 -4 25 0 14 4 25
10 25 7 0 7 4 -1 12 -7 7 -12 28 -12 48 l0 37 -57 9 c-45 7 -59 13 -62 28 -4
22 -31 48 -73 71 -16 9 -28 24 -28 34 0 13 -6 17 -27 14 -16 -3 -47 0 -70 5
-30 7 -43 6 -47 -2 -3 -8 -7 -7 -14 3 -7 9 -11 10 -13 2 -6 -16 -39 -3 -39 14
0 8 5 17 10 20 8 5 7 11 -1 21 -9 11 -9 14 1 14 7 0 2 9 -11 21 -25 22 -36 84
-13 75 7 -3 20 6 30 20 11 13 24 24 31 24 13 0 13 26 0 48 -5 6 -5 12 0 12 4
0 2 4 -6 9 -18 11 -24 41 -9 41 6 0 4 8 -4 18 -28 31 -28 72 -2 99 15 15 18
23 9 23 -8 0 -17 5 -21 12 -5 8 -2 9 9 5 9 -3 16 -3 16 1 -3 20 2 31 14 26 17
-6 19 30 6 79 -7 25 -18 41 -34 47 -19 7 -25 19 -32 62 l-8 53 -22 -22 c-12
-12 -25 -18 -28 -15 -4 4 -4 -3 -1 -15 6 -19 3 -23 -13 -23 -28 0 -27 27 2 51
l22 20 -22 -11 c-27 -13 -30 -2 -12 49 13 38 46 40 41 3 -4 -25 34 -47 54 -31
6 5 14 6 17 2 4 -3 7 -2 7 4 0 6 -10 17 -22 25 -18 12 -22 23 -19 60 2 39 -1
46 -19 51 -12 3 -19 10 -16 16 4 5 1 13 -5 17 -7 4 -9 3 -5 -4 13 -21 -13 -21
-84 0 -42 13 -74 18 -78 12 -12 -16 -35 -16 -78 1 -54 21 -90 13 -125 -26 -18
-20 -34 -29 -44 -25 -9 3 -13 2 -10 -3 8 -14 -16 -26 -52 -26 -20 0 -28 4 -22
10 14 14 11 21 -17 34 -21 9 -30 9 -42 -1 -10 -8 -8 1 7 25 13 21 21 41 17 44
-3 4 -6 1 -6 -5 0 -6 -14 -13 -31 -17 -33 -7 -92 -62 -83 -76 3 -5 -2 -19 -12
-31 l-16 -23 5 22 c3 13 1 26 -4 29 -5 3 -9 -2 -9 -10 0 -9 -8 -14 -20 -13
-22 1 -27 13 -7 20 7 4 6 6 -5 6 -10 1 -24 -16 -37 -42 -26 -54 -27 -66 -2
-36 l20 24 -6 -23 c-3 -12 -9 -25 -14 -28 -12 -7 -49 14 -49 29 0 8 4 7 10 -3
8 -13 9 -13 14 0 4 14 18 69 20 80 1 3 7 20 15 38 10 24 16 30 22 20 12 -18
11 -31 0 -23 -5 3 -12 1 -15 -4 -3 -5 1 -11 8 -14 9 -4 27 9 46 31 17 20 39
46 49 57 18 21 34 55 25 55 -2 0 -8 -10 -13 -22 -6 -16 -9 -18 -13 -7 -3 8 6
28 19 44 14 17 22 23 18 15 -5 -8 8 1 28 20 19 19 33 38 30 43 -2 4 -1 6 4 5
4 -1 22 6 38 17 120 75 136 88 127 97 -14 14 -52 0 -52 -20 0 -12 -3 -13 -8
-5 -6 9 -15 7 -37 -7 -24 -16 -47 -20 -110 -20 -47 0 -86 5 -92 11 -8 8 -25 8
-63 -1 -41 -10 -54 -10 -60 0 -4 6 -23 11 -41 10 -56 -3 -63 -2 -51 13 8 9 7
13 -6 14 -9 1 -36 5 -59 9 -25 4 -43 3 -43 -3 0 -5 -23 -8 -50 -7 -37 1 -53
-3 -60 -15 -8 -14 -9 -14 -10 2 0 17 -39 25 -54 10 -12 -12 -40 -12 -49 0 -5
7 -6 4 -2 -9 4 -15 0 -24 -11 -28 -11 -4 -15 -2 -11 7 3 7 -1 27 -9 45 -11 26
-19 32 -44 32 -24 0 -30 -4 -31 -22 -1 -17 -2 -19 -6 -5 -3 10 -14 17 -30 17
-17 0 -23 -4 -20 -13 3 -8 1 -20 -4 -28 -7 -11 -9 -9 -9 9 0 21 -14 30 -23 15
-2 -5 -3 -3 -1 3 1 6 -2 17 -7 25 -7 11 -9 11 -9 -3 0 -21 -16 -24 -22 -5 -3
8 -32 13 -89 14 -94 2 -156 20 -196 58 -15 14 -33 25 -40 25 -7 0 -13 4 -13 9
0 18 -180 111 -215 111 -35 0 -46 13 -22 24 6 4 2 4 -10 2 -12 -2 -24 1 -26 7
-2 6 -23 11 -48 11 -32 1 -43 5 -41 15 3 12 1 12 -14 0 -10 -8 -15 -9 -11 -3
4 7 -2 14 -16 18 -31 8 -37 7 -37 -4z m970 -300 c0 -13 -20 -13 -40 0 -12 8
-9 10 13 10 15 0 27 -4 27 -10z m880 -30 c-20 -13 -33 -13 -25 0 3 6 14 10 23
10 15 0 15 -2 2 -10z m-785 -30 c3 -5 1 -10 -4 -10 -6 0 -11 5 -11 10 0 6 2
10 4 10 3 0 8 -4 11 -10z m90 0 c3 -5 1 -10 -4 -10 -6 0 -11 5 -11 10 0 6 2
10 4 10 3 0 8 -4 11 -10z m-145 -22 c0 -11 -28 -10 -35 1 -3 6 4 9 15 8 11 -1
20 -5 20 -9z m-61 -58 c0 -10 -3 -8 -9 5 -12 27 -12 43 0 25 5 -8 9 -22 9 -30z
m441 22 c0 -5 -7 -17 -15 -28 -14 -18 -14 -17 -4 9 12 27 19 34 19 19z m43
-19 c-11 -32 -15 -35 -24 -22 -13 20 -11 27 9 32 9 3 18 5 19 6 1 0 0 -7 -4
-16z m-451 -48 c13 -18 9 -28 -7 -15 -8 6 -18 9 -23 6 -6 -3 -15 0 -21 8 -9
10 -6 13 16 12 16 -1 31 -5 35 -11z m368 0 c0 -12 -19 -12 -23 0 -4 9 -1 12 9
8 7 -3 14 -7 14 -8z m-525 -102 c-5 -23 -6 -23 -33 -6 l-27 18 18 -25 c9 -14
25 -36 34 -48 14 -20 14 -25 2 -33 -16 -10 -35 -12 -26 -2 4 3 2 12 -3 19 -6
6 -10 16 -9 20 1 5 -6 26 -15 48 -14 30 -15 41 -5 50 9 8 10 7 4 -4 -8 -13 -6
-13 8 -2 9 8 19 24 23 35 7 20 8 19 21 -12 8 -19 12 -45 8 -58z m555 50 c-11
-17 -11 -17 -6 0 3 10 6 24 7 30 0 9 2 9 5 0 3 -7 0 -20 -6 -30z m216 16 c-8
-12 -12 -27 -10 -34 7 -16 -52 -99 -60 -86 -4 5 1 14 11 19 14 9 15 14 5 36
-7 16 -8 28 -2 31 6 4 10 -3 10 -15 0 -12 5 -18 10 -15 6 4 7 13 1 23 -9 19
-4 45 9 37 4 -3 13 2 20 10 19 23 23 18 6 -6z m-647 -21 c6 -18 7 -28 2 -23
-10 12 -25 55 -18 55 3 0 10 -15 16 -32z m589 3 c-7 -12 -17 -21 -22 -21 -5 0
-15 -8 -22 -17 -8 -11 -13 -13 -14 -5 0 14 36 52 50 52 6 0 10 5 10 12 0 6 3
9 6 6 3 -3 -1 -15 -8 -27z m-334 -17 c3 -8 2 -12 -4 -9 -6 3 -10 10 -10 16 0
14 7 11 14 -7z m-282 -9 c13 0 53 -60 55 -84 2 -19 -5 -10 -26 28 -15 30 -30
49 -32 43 -2 -7 -9 -4 -17 9 -11 17 -11 20 0 13 7 -5 16 -9 20 -9z m68 -24 c0
-9 5 -22 12 -29 9 -9 9 -12 0 -12 -7 0 -12 1 -12 3 0 1 -4 17 -9 35 -6 20 -6
30 0 27 5 -4 9 -14 9 -24z m321 -1 c9 12 10 12 5 -3 -3 -10 -6 -24 -6 -30 0
-7 -7 1 -15 17 -8 15 -15 33 -14 40 0 6 5 0 10 -14 8 -20 12 -22 20 -10z
m-557 -5 c3 -8 1 -15 -4 -15 -6 0 -10 7 -10 15 0 8 2 15 4 15 2 0 6 -7 10 -15z
m483 -36 c8 -24 16 -52 18 -62 2 -10 7 -28 11 -39 5 -18 4 -19 -9 -7 -8 8 -12
20 -10 26 3 7 0 13 -6 13 -7 0 -11 6 -9 13 4 22 -13 87 -23 87 -6 0 -7 -6 -3
-12 5 -10 4 -10 -6 -1 -14 12 -4 36 12 31 6 -2 17 -24 25 -49z m-120 19 c-3
-8 -6 -5 -6 6 -1 11 2 17 5 13 3 -3 4 -12 1 -19z m-64 -38 c3 -11 1 -20 -4
-20 -5 0 -9 9 -9 20 0 11 2 20 4 20 2 0 6 -9 9 -20z m217 5 c0 -8 -2 -15 -4
-15 -2 0 -6 7 -10 15 -3 8 -1 15 4 15 6 0 10 -7 10 -15z m-485 -28 c4 4 5 3 2
-3 -4 -7 3 -23 14 -38 11 -14 16 -26 10 -26 -5 0 -13 5 -17 11 -4 8 -9 7 -16
-2 -8 -11 -9 -10 -4 4 3 9 1 17 -4 17 -6 0 -10 -6 -10 -12 -1 -7 -8 0 -17 17
-11 20 -12 30 -4 33 6 2 11 11 11 20 1 13 4 11 13 -6 7 -12 17 -19 22 -15z
m385 3 c0 -16 -2 -30 -4 -30 -2 0 -6 14 -8 30 -3 17 -1 30 4 30 4 0 8 -13 8
-30z m476 3 c-10 -10 -19 5 -10 18 6 11 8 11 12 0 2 -7 1 -15 -2 -18z m-646
-66 c0 -13 -49 43 -50 57 0 5 11 -3 25 -18 14 -15 25 -32 25 -39z m277 41 c-3
-8 -6 -5 -6 6 -1 11 2 17 5 13 3 -3 4 -12 1 -19z m653 12 c19 10 21 9 18 -7
-2 -10 -9 -17 -16 -16 -6 2 -23 -2 -37 -7 -16 -6 -25 -6 -25 0 0 6 -10 5 -25
-2 -13 -6 -22 -15 -18 -21 3 -6 1 -7 -5 -3 -6 4 -9 13 -6 20 7 18 77 45 85 33
4 -5 16 -4 29 3z m320 -14 c0 -3 -4 -8 -10 -11 -5 -3 -10 -1 -10 4 0 6 5 11
10 11 6 0 10 -2 10 -4z m-220 -14 c0 -17 -47 -31 -60 -19 -10 9 -12 8 -7 -5 4
-12 2 -15 -9 -11 -11 4 -12 9 -3 19 6 8 15 11 20 8 5 -3 17 0 26 5 22 13 33
14 33 3z m73 -9 c-3 -8 -12 -12 -20 -9 -15 6 -57 -30 -49 -43 3 -5 -6 -26 -20
-47 -45 -66 -35 -112 20 -98 23 5 26 3 23 -15 -2 -11 -7 -24 -12 -28 -4 -5 -6
-3 -2 2 3 6 -10 10 -34 10 -22 0 -36 -1 -30 -3 6 -2 11 -11 11 -19 0 -11 7
-14 25 -11 15 3 22 1 18 -5 -4 -7 6 -8 28 -4 l34 6 -27 -15 c-33 -17 -33 -18
-10 -40 14 -15 14 -17 1 -12 -9 3 -21 3 -28 -2 -9 -5 -3 -11 18 -18 34 -12 40
-26 15 -36 -25 -10 -37 -7 -31 8 7 18 -31 29 -52 15 -13 -8 -12 -9 6 -4 24 7
36 -5 23 -24 -5 -9 -13 -10 -21 -5 -8 5 -30 9 -49 10 -19 1 -43 3 -52 3 -12 1
-15 6 -11 18 5 13 -1 12 -28 -7 -21 -15 -29 -18 -20 -7 11 15 11 17 -2 17 -8
0 -17 -6 -19 -12 -3 -9 -20 -5 -57 14 -28 15 -49 23 -46 18 3 -6 -3 -10 -14
-10 -12 0 -21 -6 -21 -14 0 -10 11 -12 40 -9 47 6 78 -3 64 -17 -5 -5 -48 -10
-96 -12 -48 -1 -85 -5 -82 -9 2 -4 -9 -4 -26 1 -29 8 -43 -3 -17 -13 6 -3 3
-6 -8 -6 -39 -2 -160 -34 -176 -48 -19 -16 -33 -17 -23 -1 4 7 3 8 -4 4 -7 -4
-12 -14 -12 -22 0 -8 -6 -14 -13 -14 -7 0 -13 -10 -14 -21 -4 -51 -88 -85
-100 -40 -3 13 -11 18 -21 15 -15 -5 -14 -4 0 6 13 8 23 8 38 0 12 -6 20 -7
20 -1 0 5 -6 12 -12 14 -7 3 -4 6 8 6 15 1 24 11 32 40 7 21 12 48 12 61 0 18
-3 20 -14 10 -11 -8 -20 -9 -33 -1 -10 6 -14 11 -9 11 6 0 1 7 -10 16 -19 15
-18 15 3 11 19 -4 21 -2 13 13 -19 35 8 158 31 144 6 -3 10 0 8 7 -4 32 2 60
11 54 6 -4 10 9 10 30 0 25 4 35 13 32 6 -2 11 -10 9 -16 -1 -6 2 -11 8 -11 5
0 10 5 10 10 0 6 4 10 8 10 12 0 6 -207 -7 -239 -6 -14 -12 -35 -14 -46 -1
-11 -6 -25 -10 -31 -8 -14 36 -24 55 -13 7 5 9 9 5 9 -5 0 -1 10 7 22 9 13 16
43 16 69 0 37 5 52 25 70 13 13 25 30 25 38 0 8 7 22 16 32 13 15 20 38 26 86
1 7 5 10 10 7 4 -3 4 -14 -2 -24 -13 -25 -13 -33 3 -24 9 6 9 4 -1 -8 -16 -20
1 -33 20 -15 7 7 27 20 43 30 28 17 27 16 -5 -12 -29 -25 -32 -32 -20 -40 16
-11 44 5 35 19 -6 10 13 23 38 27 15 3 14 -2 -8 -35 -14 -20 -30 -38 -35 -38
-6 -1 -14 -2 -20 -3 -17 -2 -50 -44 -51 -65 0 -12 -3 -15 -6 -8 -8 19 -23 14
-23 -8 0 -11 6 -20 13 -21 6 0 3 -4 -8 -9 -11 -5 -14 -9 -7 -9 15 -1 16 -21 1
-21 -13 0 -38 -30 -39 -45 0 -5 4 -4 9 4 5 8 31 16 61 18 28 2 63 8 76 13 27
11 32 30 8 30 -8 0 -12 -4 -9 -10 6 -9 -7 -14 -75 -24 -31 -5 -33 -4 -17 8 9
7 17 18 17 25 0 14 17 15 25 1 3 -5 14 -10 23 -9 14 0 13 2 -3 9 -15 7 -16 9
-4 9 9 1 22 8 29 16 7 8 20 15 29 14 12 0 11 -2 -4 -9 -18 -8 -18 -9 -2 -9 10
-1 20 6 23 14 4 8 14 15 23 14 10 0 11 -2 4 -6 -29 -11 -10 -20 35 -16 55 5
81 22 37 24 -24 1 -26 3 -7 6 12 2 20 7 18 11 -2 4 17 8 42 10 55 3 63 9 38
28 -19 13 -18 14 12 14 21 0 32 5 32 14 0 8 9 24 21 37 l20 24 -15 -25 c-10
-16 -12 -30 -6 -40 8 -12 10 -12 16 3 3 9 10 14 15 11 5 -3 7 -10 4 -15 -12
-18 12 -9 31 13 10 12 13 18 7 14 -7 -4 -13 -2 -13 3 0 6 4 11 10 11 5 0 7 7
4 15 -4 8 -1 15 4 15 6 0 14 9 17 20 3 11 13 20 22 20 18 0 42 28 42 50 1 10
-6 7 -20 -10 -17 -20 -19 -21 -14 -5 4 11 8 26 8 33 0 6 8 12 18 12 10 0 24 8
31 18 20 29 71 41 61 15z m-1074 0 c-4 -27 3 -73 10 -69 5 4 7 -3 4 -14 -7
-27 -18 -33 -20 -12 -6 59 -5 102 2 102 3 0 4 -3 4 -7z m1086 -37 c-25 -33
-29 -35 -40 -19 -11 15 -9 19 14 31 14 7 30 17 35 22 22 22 16 -2 -9 -34z
m-1372 -10 c3 3 2 -11 -3 -30 -4 -21 -4 -36 1 -36 5 0 9 -5 9 -11 0 -5 -6 -7
-12 -3 -8 5 -7 0 2 -11 14 -17 13 -18 -2 -12 -26 9 -23 -24 2 -46 12 -10 18
-22 15 -27 -3 -6 1 -7 9 -4 9 3 16 11 16 17 0 6 11 0 25 -13 14 -13 25 -29 25
-37 0 -7 5 -13 10 -13 6 0 10 -11 10 -24 0 -13 5 -26 11 -28 5 -2 11 -10 12
-19 2 -9 11 -37 22 -62 17 -43 22 -47 52 -47 18 0 33 -5 33 -12 0 -6 2 -9 5
-6 10 10 -7 38 -24 39 -11 0 -12 2 -3 6 8 3 10 9 3 16 -5 7 -10 15 -10 19 -3
20 -16 44 -30 56 -11 9 -11 11 -2 6 11 -6 13 -3 7 12 -14 36 -19 74 -9 74 10
0 9 63 -2 95 -15 44 -14 49 6 25 11 -14 18 -20 15 -13 -4 6 -2 14 4 18 5 3 10
-3 10 -14 0 -11 7 -26 15 -35 13 -12 37 -101 34 -124 -2 -16 14 -52 24 -52 6
0 7 -3 4 -7 -4 -3 -2 -12 4 -19 8 -10 5 -11 -12 -7 -19 5 -21 3 -15 -13 12
-31 12 -39 -1 -36 -18 3 -16 -6 14 -70 18 -37 34 -58 45 -58 11 0 15 5 12 14
-3 8 0 17 6 21 20 13 0 -59 -22 -78 -22 -18 -22 -18 -40 17 -10 20 -25 36 -33
36 -8 0 -22 11 -31 25 -9 14 -19 23 -22 20 -3 -3 -12 1 -21 8 -20 17 -146 57
-186 59 -16 1 -36 6 -44 12 -11 8 -13 8 -7 -1 4 -7 2 -13 -3 -13 -6 0 -11 5
-11 10 0 6 -5 10 -11 10 -5 0 -7 -4 -4 -10 4 -6 -7 -10 -24 -10 -17 0 -31 3
-31 8 0 4 -35 6 -77 5 -88 -2 -116 3 -107 20 3 7 -1 4 -9 -5 -15 -19 -47 -24
-47 -8 0 5 -10 9 -21 7 -14 -1 -23 4 -24 16 -2 10 3 17 11 17 9 0 12 5 9 10
-6 9 8 15 29 11 5 -1 6 5 3 13 -3 8 -1 16 5 18 8 3 7 11 -2 27 -11 22 -11 23
6 17 10 -4 15 -4 12 0 -4 3 3 15 15 26 12 11 16 17 10 13 -19 -9 -16 10 4 26
12 10 14 10 9 1 -4 -7 -1 -14 8 -18 8 -3 12 -12 9 -20 -3 -8 0 -14 6 -14 6 0
11 5 11 10 0 6 6 10 13 8 6 -2 12 2 12 7 0 6 -6 9 -15 7 -13 -2 -13 -1 -1 7
17 11 55 -4 46 -18 -7 -12 26 -24 37 -13 13 13 58 2 58 -14 0 -8 7 -14 15 -14
8 0 15 -5 15 -10 0 -7 -6 -7 -17 -2 -10 5 -24 7 -32 4 -7 -2 -17 2 -22 9 -7
11 -9 11 -9 -2 0 -20 20 -29 61 -29 31 0 41 -19 12 -21 -12 -1 -9 -4 7 -8 14
-4 26 -4 28 0 2 4 22 -4 45 -17 23 -13 49 -24 57 -23 10 0 9 3 -5 10 -73 36
-108 58 -92 58 19 1 23 17 5 23 -7 3 -3 7 9 10 17 5 24 0 33 -22 12 -28 40
-49 40 -29 0 6 4 7 10 4 18 -11 50 -14 50 -5 0 5 -22 19 -50 31 -27 12 -50 25
-50 30 0 5 16 0 35 -11 26 -15 33 -16 28 -5 -3 8 -9 15 -13 15 -4 0 -10 10
-13 21 -4 13 -11 20 -20 16 -8 -3 -14 1 -14 9 0 8 5 14 11 14 6 0 -2 12 -19
26 -16 14 -24 22 -16 18 11 -5 13 -3 8 10 -5 11 -3 15 5 10 8 -5 9 -2 5 9 -4
10 -1 17 6 17 8 0 8 3 2 8 -6 4 -21 20 -33 36 -16 21 -19 33 -12 46 5 9 6 21
2 25 -4 5 9 -4 29 -18 20 -15 38 -24 42 -21z m793 -3 c-18 -33 -21 -26 -6 13
6 15 13 24 16 21 3 -3 -1 -18 -10 -34z m394 33 c0 -2 -8 -10 -17 -17 -16 -13
-17 -12 -4 4 13 16 21 21 21 13z m-1375 -16 c3 -5 2 -10 -4 -10 -5 0 -13 5
-16 10 -3 6 -2 10 4 10 5 0 13 -4 16 -10z m615 -11 c0 -5 -5 -7 -12 -3 -8 5
-9 2 -5 -9 3 -10 2 -17 -3 -17 -11 0 -13 23 -3 33 10 10 23 8 23 -4z m407 -24
c-3 -7 -16 -19 -29 -25 -19 -9 -21 -9 -7 2 9 7 20 24 24 38 5 14 10 19 13 12
2 -7 1 -19 -1 -27z m184 12 c-10 -9 -11 -8 -5 6 3 10 9 15 12 12 3 -3 0 -11
-7 -18z m-1161 -24 c0 -8 -5 -11 -10 -8 -6 4 -8 11 -5 16 4 5 1 9 -4 9 -6 0
-11 5 -11 11 0 8 5 8 15 -1 8 -7 15 -19 15 -27z m1012 8 c-19 -33 -76 -74 -66
-47 3 9 9 14 13 13 4 -1 20 13 35 31 34 40 40 41 18 3z m70 2 c-6 -2 -9 -10
-5 -16 4 -7 0 -8 -13 -3 -10 4 -15 4 -12 0 9 -8 -9 -44 -21 -44 -5 0 -8 8 -7
18 1 17 43 52 61 51 6 0 4 -3 -3 -6z m-1142 -17 c0 -3 -4 -8 -10 -11 -5 -3
-10 -1 -10 4 0 6 5 11 10 11 6 0 10 -2 10 -4z m918 -29 c-16 -33 -18 -32 -15
0 1 19 6 29 14 26 10 -4 10 -10 1 -26z m-1148 -19 c0 -23 -9 -23 -26 0 -22 28
-18 45 6 30 11 -7 20 -21 20 -30z m467 27 c8 -9 13 -22 10 -30 -3 -7 1 -19 9
-26 8 -7 20 -22 26 -33 11 -20 10 -20 -9 -3 -11 9 -22 15 -25 12 -11 -11 -32
29 -33 61 0 39 1 40 22 19z m1283 9 c0 -3 -9 -17 -20 -31 -17 -22 -20 -23 -17
-7 1 10 6 25 10 32 8 12 27 17 27 6z m-1388 -18 c10 6 11 5 1 -8 -7 -8 -12
-17 -10 -19 1 -2 -6 4 -15 13 -22 21 -24 35 -3 18 8 -6 20 -8 27 -4z m1018 10
c0 -2 -7 -6 -15 -10 -8 -3 -15 -1 -15 4 0 6 7 10 15 10 8 0 15 -2 15 -4z m-93
-28 c-3 -8 -6 -5 -6 6 -1 11 2 17 5 13 3 -3 4 -12 1 -19z m-1222 -26 c-8 -8
-25 10 -25 26 0 13 2 13 14 -4 8 -10 13 -21 11 -22z m1710 28 c-3 -5 -12 -10
-18 -10 -7 0 -6 4 3 10 19 12 23 12 15 0z m-387 -18 c14 4 19 2 15 -8 -2 -7
-10 -11 -17 -8 -7 3 -19 -2 -26 -11 -7 -8 -17 -15 -22 -15 -5 0 -3 7 6 15 8 9
13 23 10 33 -5 13 -4 14 4 3 6 -8 19 -12 30 -9z m-1282 -7 c9 -8 12 -20 8 -26
-5 -9 -11 -6 -21 6 -23 33 -14 47 13 20z m1231 -7 c-3 -8 -6 -5 -6 6 -1 11 2
17 5 13 3 -3 4 -12 1 -19z m-1096 -25 c13 -16 12 -17 -3 -4 -17 13 -22 21 -14
21 2 0 10 -8 17 -17z m504 -22 c-2 -9 -4 -27 -4 -40 -1 -39 -12 -18 -12 25 -2
54 0 61 10 45 5 -7 7 -21 6 -30z m30 29 c3 -5 1 -10 -4 -10 -6 0 -11 5 -11 10
0 6 2 10 4 10 3 0 8 -4 11 -10z m-625 -10 c-19 -13 -30 -13 -30 0 0 6 10 10
23 10 18 0 19 -2 7 -10z m60 0 c0 -5 -2 -10 -4 -10 -3 0 -8 5 -11 10 -3 6 -1
10 4 10 6 0 11 -4 11 -10z m110 -10 c11 -11 20 -24 20 -30 0 -15 -46 -12 -59
4 -10 12 -8 13 11 8 20 -5 21 -4 10 11 -8 9 -21 13 -30 10 -15 -4 -15 -3 -2 6
21 15 27 14 50 -9z m560 -8 c0 -8 -1 -13 -3 -11 -1 2 -9 12 -16 22 -12 15 -12
17 3 11 9 -3 16 -13 16 -22z m530 8 c0 -4 -17 -15 -37 -23 -21 -9 -30 -16 -20
-16 9 -1 17 -3 17 -5 0 -2 2 -10 5 -18 4 -9 -7 -14 -41 -15 l-46 -3 24 20 c20
18 21 19 3 14 -11 -4 2 10 29 30 45 33 66 38 66 16z m104 -4 c-3 -9 -10 -16
-15 -16 -5 0 -4 9 3 20 14 22 21 20 12 -4z m-1287 -11 c0 -8 -4 -12 -9 -9 -5
3 -6 10 -3 15 9 13 12 11 12 -6z m1103 11 c0 -2 -7 -7 -16 -10 -8 -3 -12 -2
-9 4 6 10 25 14 25 6z m500 -1 c0 -2 -10 -9 -22 -15 -22 -11 -22 -10 -4 4 21
17 26 19 26 11z m-386 -20 c-4 -8 -11 -15 -18 -15 -6 0 -4 -5 4 -10 11 -7 8
-8 -13 -6 -25 2 -38 14 -19 17 4 1 16 8 27 15 24 17 26 17 19 -1z m-1054 1 c0
-2 -7 -7 -16 -10 -8 -3 -12 -2 -9 4 6 10 25 14 25 6z m1420 -66 c-8 -5 -19
-10 -25 -10 -5 0 -3 5 5 10 8 5 20 10 25 10 6 0 3 -5 -5 -10z m103 -57 c-7 -2
-19 -2 -25 0 -7 3 -2 5 12 5 14 0 19 -2 13 -5z m57 -64 c-10 -17 -14 -18 -27
-8 -13 12 -13 14 4 20 30 12 34 10 23 -12z m-1223 -61 c2 -18 0 -20 -7 -8 -12
18 -13 30 -2 30 4 0 9 -10 9 -22z m713 -1 c27 -1 52 -9 63 -19 9 -10 13 -18 7
-18 -5 0 -10 -7 -10 -15 0 -8 -9 -15 -19 -15 -10 0 -21 -7 -25 -15 -3 -8 -12
-15 -21 -15 -8 0 -15 -4 -15 -9 0 -5 9 -7 20 -4 16 4 19 2 14 -11 -3 -9 -2
-16 2 -17 64 -7 84 -5 84 7 0 8 18 15 48 19 81 11 97 11 95 -2 -2 -7 0 -12 5
-12 4 1 18 1 32 0 17 -1 21 -4 12 -9 -10 -7 -6 -13 13 -28 14 -10 25 -27 25
-36 0 -16 -10 -18 -71 -18 -56 0 -69 -3 -62 -12 6 -7 9 -21 8 -31 -2 -11 5
-21 18 -26 27 -11 50 5 42 29 -8 25 61 34 78 10 7 -9 19 -20 27 -23 8 -4 3 -5
-12 -3 -15 1 -25 -1 -22 -5 3 -5 11 -9 18 -9 7 0 21 -7 32 -16 16 -13 16 -15
2 -10 -10 3 -18 0 -18 -6 0 -6 8 -17 18 -25 16 -14 16 -14 -3 -10 -11 3 -29 8
-39 13 -12 4 -17 4 -13 -2 6 -10 2 -11 -75 -16 -25 -2 -44 -6 -41 -10 2 -5 0
-8 -6 -8 -5 0 -17 -3 -26 -6 -9 -4 -15 -2 -13 3 2 5 -10 22 -26 38 -17 17 -31
25 -33 18 -3 -7 -10 -10 -16 -8 -7 2 -24 6 -39 9 -16 4 -28 13 -28 22 0 8 -4
13 -10 9 -5 -3 -18 3 -30 15 -11 11 -25 20 -30 20 -6 0 -13 7 -16 15 -4 8 -11
12 -17 8 -6 -3 -7 -1 -3 6 4 6 11 9 15 7 4 -3 20 4 37 15 26 17 22 26 -10 20
-5 -1 -6 7 -3 19 3 11 1 20 -5 20 -5 0 -6 9 -3 20 5 15 2 20 -14 20 -11 0 -23
5 -26 10 -5 8 -11 8 -19 1 -7 -6 -17 -7 -21 -3 -5 4 -5 2 -2 -5 4 -6 17 -9 29
-5 13 3 19 1 15 -5 -4 -6 -34 -11 -68 -10 -41 0 -64 -4 -71 -14 -8 -11 -9 -10
-4 4 5 15 2 17 -17 12 -22 -7 -22 -7 -2 8 11 8 23 13 26 11 4 -2 30 19 59 46
29 28 57 50 61 50 5 0 9 5 9 11 0 7 9 9 23 5 12 -4 42 -8 67 -9z m-1099 -64
c35 -55 83 -77 167 -77 l73 0 -30 -28 c-33 -31 -43 -35 -35 -14 6 16 -34 30
-50 17 -6 -5 -18 -7 -26 -5 -8 2 -28 6 -45 9 -16 4 -45 7 -62 8 -18 0 -33 4
-33 7 0 4 -13 5 -29 2 -22 -3 -29 1 -34 18 -3 12 -10 19 -16 15 -6 -3 -11 -1
-11 4 0 6 -9 11 -19 11 -46 0 -67 23 -33 35 11 3 24 16 30 29 10 22 12 23 72
12 52 -10 64 -16 81 -43z m-491 22 c0 -14 -4 -25 -9 -25 -5 0 -8 11 -8 25 0
14 3 25 8 25 5 0 9 -11 9 -25z m1270 4 c0 -11 -4 -17 -10 -14 -5 3 -10 13 -10
21 0 8 5 14 10 14 6 0 10 -9 10 -21z m-329 -43 c5 3 9 1 9 -4 0 -6 7 -9 16 -8
9 0 19 -5 21 -12 4 -10 -1 -10 -28 1 -18 7 -34 18 -35 25 -1 7 0 8 3 2 2 -5 9
-8 14 -4z m306 -62 c-9 -9 -28 6 -21 18 4 6 10 6 17 -1 6 -6 8 -13 4 -17z
m-1015 5 c15 -8 19 -8 14 0 -4 6 -2 11 3 11 6 0 11 -8 11 -17 0 -16 2 -16 11
-3 7 11 12 12 15 3 3 -7 11 -10 19 -7 17 7 57 -14 50 -26 -3 -4 -15 -6 -28 -3
-14 3 -18 2 -10 -4 7 -5 9 -14 4 -21 -6 -10 -10 -10 -20 2 -8 9 -23 12 -44 10
-23 -4 -28 -2 -17 5 10 7 -4 8 -45 5 l-60 -6 30 21 c17 11 26 21 20 21 -5 0
-3 5 5 10 19 12 17 12 42 -1z m1231 -14 c-3 -9 -8 -14 -10 -11 -3 3 -2 9 2 15
9 16 15 13 8 -4z m564 -1 c-3 -3 -12 -4 -19 -1 -8 3 -5 6 6 6 11 1 17 -2 13
-5z m-567 -30 c0 -2 -11 -4 -25 -4 -14 0 -25 4 -25 9 0 4 11 6 25 3 14 -2 25
-6 25 -8z m614 1 c-5 -13 -9 -13 -23 -3 -9 7 -18 14 -20 15 -2 2 8 3 22 3 20
0 25 -4 21 -15z m-1468 -18 c4 -4 0 -7 -9 -7 -9 0 -18 4 -21 9 -7 10 20 9 30
-2z m359 -7 c3 -6 -1 -7 -9 -4 -18 7 -21 14 -7 14 6 0 13 -4 16 -10z m-722 -7
c-7 -2 -19 -2 -25 0 -7 3 -2 5 12 5 14 0 19 -2 13 -5z m82 -22 c3 -5 -5 -12
-17 -14 -13 -3 -8 -4 12 -4 19 1 38 5 41 10 3 4 14 -4 23 -19 10 -14 13 -23 7
-20 -6 4 -21 0 -33 -8 -21 -15 -21 -16 -3 -17 13 0 6 -7 -20 -18 -22 -10 -46
-16 -54 -13 -11 4 -11 1 -2 -17 10 -17 9 -22 -3 -27 -9 -3 -23 2 -33 11 -16
17 -18 16 -27 -4 -10 -22 -23 -26 -45 -12 -11 7 -10 11 5 21 17 10 16 11 -6 5
-14 -3 -38 -8 -55 -10 -29 -5 -29 -5 -7 7 14 7 22 18 19 28 -3 11 5 20 24 27
22 9 27 8 22 0 -13 -20 -9 -31 12 -42 15 -8 24 -7 36 5 9 8 14 18 12 22 -2 4
4 5 13 1 12 -4 15 -2 12 8 -3 8 -11 15 -19 15 -8 1 -18 2 -23 3 -5 0 -1 10 9
21 14 15 15 20 4 20 -8 1 -3 7 11 15 29 16 76 20 85 6z m119 -53 c-9 -14 -23
-9 -33 11 -10 17 -8 18 13 8 14 -7 22 -15 20 -19z m811 -18 c-3 -5 -14 -10
-23 -9 -14 0 -13 2 3 9 27 11 27 11 20 0z m-1205 -70 c0 -5 -2 -10 -4 -10 -3
0 -8 5 -11 10 -3 6 -1 10 4 10 6 0 11 -4 11 -10z m190 -4 c0 -3 -4 -8 -10 -11
-5 -3 -10 -1 -10 4 0 6 5 11 10 11 6 0 10 -2 10 -4z m-50 -186 c-35 -31 -42
-34 -53 -24 -8 8 32 40 58 47 11 2 22 5 24 6 3 0 -11 -12 -29 -29z m50 -95
c-7 -8 -17 -15 -22 -15 -11 0 14 29 26 30 5 0 3 -7 -4 -15z m-70 -39 c0 -3 -4
-8 -10 -11 -5 -3 -10 -1 -10 4 0 6 5 11 10 11 6 0 10 -2 10 -4z m100 -28 c0
-5 -5 -8 -11 -8 -5 0 -7 6 -3 13 12 20 -10 -4 -55 -61 -39 -51 -59 -62 -25
-14 8 12 12 27 8 34 -4 6 -3 8 3 5 6 -4 23 9 38 29 21 27 30 33 36 23 5 -8 9
-17 9 -21z m1485 -88 c10 -11 16 -20 13 -20 -3 0 -13 9 -23 20 -10 11 -16 20
-13 20 3 0 13 -9 23 -20z m-1415 -4 c0 -11 -19 -15 -25 -6 -3 5 1 10 9 10 9 0
16 -2 16 -4z m1511 -118 c16 -29 2 -21 -22 15 -17 23 -18 28 -6 18 10 -8 23
-23 28 -33z m-250 15 c13 -16 12 -17 -3 -4 -17 13 -22 21 -14 21 2 0 10 -8 17
-17z m160 -60 c13 -16 12 -17 -3 -4 -17 13 -22 21 -14 21 2 0 10 -8 17 -17z
m-564 -25 c-3 -7 -5 -2 -5 12 0 14 2 19 5 13 2 -7 2 -19 0 -25z m701 -13 c-3
-3 -9 2 -12 12 -6 14 -5 15 5 6 7 -7 10 -15 7 -18z m-253 -26 c-4 -19 -3 -29
5 -29 6 0 8 -4 5 -10 -3 -5 1 -10 10 -10 9 0 13 -5 10 -10 -5 -8 -11 -7 -21 1
-7 6 -25 8 -38 5 -19 -5 -23 -11 -18 -28 5 -21 4 -22 -11 -9 -10 8 -17 9 -17
3 0 -14 -40 -11 -40 3 -1 5 -6 -2 -13 -18 l-12 -27 -27 25 c-28 26 -33 41 -22
69 7 18 39 22 49 6 11 -17 35 9 35 37 0 23 3 25 30 20 16 -4 32 -2 35 2 3 5
14 7 26 4 16 -5 19 -11 14 -34z m-1395 5 c0 -2 -9 -4 -21 -4 -11 0 -18 4 -14
10 5 8 35 3 35 -6z m84 -6 c-5 -7 -1 -9 13 -6 11 3 27 2 35 -3 8 -5 25 -2 41
6 25 13 27 12 27 -6 0 -10 -4 -19 -10 -19 -5 0 -10 -5 -10 -11 0 -7 12 -8 33
-4 30 7 31 6 12 -8 -11 -9 -16 -19 -11 -24 5 -4 11 -3 13 4 2 7 11 9 19 6 18
-7 8 -23 -16 -23 -10 0 -20 -7 -24 -15 -4 -12 -10 -13 -33 -4 -33 14 -93 18
-93 7 0 -4 -9 -8 -21 -8 -11 0 -17 5 -14 10 4 6 11 8 16 5 5 -4 9 1 9 10 0 9
3 14 8 11 4 -2 16 3 27 11 19 14 17 15 -20 9 -29 -5 -36 -4 -25 3 12 9 11 11
-7 11 -13 0 -22 -5 -20 -12 1 -6 -6 -14 -15 -16 -10 -2 -18 1 -18 6 0 13 62
42 74 35 5 -4 7 1 3 9 -3 9 -3 19 0 22 10 10 15 7 7 -6z m1090 -43 c3 -8 1
-15 -4 -15 -6 0 -10 7 -10 15 0 8 2 15 4 15 2 0 6 -7 10 -15z m521 5 c3 -5 1
-10 -4 -10 -6 0 -11 5 -11 10 0 6 2 10 4 10 3 0 8 -4 11 -10z m-1715 -39 c0
-9 -53 -31 -59 -25 -8 8 25 31 44 31 8 0 15 -3 15 -6z m1750 -43 c11 -24 14
-36 7 -28 -15 17 -39 70 -32 70 2 0 14 -19 25 -42z m-116 0 c-3 -4 1 -8 8 -8
10 0 11 -2 0 -8 -8 -5 -10 -16 -6 -28 4 -10 4 -16 0 -13 -4 4 -10 20 -15 36
-7 22 -5 30 5 30 7 0 11 -4 8 -9z m-1437 -14 c-3 -3 -12 -4 -19 -1 -8 3 -5 6
6 6 11 1 17 -2 13 -5z m933 -15 c0 -5 -7 -9 -15 -9 -9 0 -12 6 -9 15 6 15 24
11 24 -6z m471 -6 c13 -16 12 -17 -3 -4 -10 7 -18 15 -18 17 0 8 8 3 21 -13z
m-546 -3 c3 -5 1 -10 -4 -10 -6 0 -11 5 -11 10 0 6 2 10 4 10 3 0 8 -4 11 -10z
m495 -20 c0 -11 -4 -20 -9 -20 -5 0 -7 9 -4 20 3 11 7 20 9 20 2 0 4 -9 4 -20z
m-1260 0 c0 -5 -5 -10 -11 -10 -5 0 -7 5 -4 10 3 6 8 10 11 10 2 0 4 -4 4 -10z
m1200 -49 c0 -12 -43 -6 -47 6 -2 6 7 8 22 6 14 -3 25 -9 25 -12z m-1130 -65
c0 -3 -4 -8 -10 -11 -5 -3 -10 -1 -10 4 0 6 5 11 10 11 6 0 10 -2 10 -4z
m1090 -16 c0 -5 -4 -10 -10 -10 -5 0 -10 5 -10 10 0 6 5 10 10 10 6 0 10 -4
10 -10z m-10 -34 c0 17 20 -21 20 -38 0 -11 -5 -15 -15 -12 -8 4 -15 12 -15
20 0 8 -4 14 -10 14 -5 0 -10 7 -10 16 0 14 3 14 15 4 8 -7 15 -9 15 -4z m260
-16 c0 -5 -2 -10 -4 -10 -3 0 -8 5 -11 10 -3 6 -1 10 4 10 6 0 11 -4 11 -10z
m220 -4 c0 -11 -19 -15 -25 -6 -3 5 1 10 9 10 9 0 16 -2 16 -4z m-155 -26 c3
-5 2 -10 -4 -10 -5 0 -13 5 -16 10 -3 6 -2 10 4 10 5 0 13 -4 16 -10z m45 -30
c0 -5 -7 -7 -15 -4 -8 4 -15 8 -15 10 0 2 7 4 15 4 8 0 15 -4 15 -10z m21 -37
c13 -17 13 -17 -6 -3 -11 8 -22 16 -24 17 -2 2 0 3 6 3 6 0 17 -8 24 -17z
m-171 -102 c0 -3 -4 -12 -8 -19 -7 -10 -14 -8 -31 7 -20 18 -21 20 -4 23 20 5
43 -1 43 -11z m49 -23 c14 -22 13 -22 -10 -7 -26 17 -38 42 -17 34 7 -3 20
-15 27 -27z m-122 -30 c-3 -8 -6 -5 -6 6 -1 11 2 17 5 13 3 -3 4 -12 1 -19z
m89 -33 c-3 -8 2 -12 12 -10 22 3 52 -13 52 -28 0 -8 -4 -7 -11 3 -8 12 -12
12 -16 2 -4 -10 -8 -10 -19 -1 -8 6 -14 8 -14 3 0 -5 -5 -2 -10 6 -13 20 -13
53 1 45 6 -4 8 -13 5 -20z m-51 -5 c7 -12 -2 -12 -30 0 -19 8 -19 9 2 9 12 1
25 -3 28 -9z m200 -18 c-3 -3 -11 0 -18 7 -9 10 -8 11 6 5 10 -3 15 -9 12 -12z
m992 2 c-3 -3 -12 -4 -19 -1 -8 3 -5 6 6 6 11 1 17 -2 13 -5z m-1610 -56 c-3
-7 -5 -2 -5 12 0 14 2 19 5 13 2 -7 2 -19 0 -25z"/>
<path d="M5127 2993 c-12 -12 -7 -22 8 -17 8 4 15 10 15 15 0 11 -14 12 -23 2z"/>
<path d="M5120 2940 c-14 -11 -20 -20 -15 -20 6 0 21 9 35 20 14 11 21 20 15
20 -5 0 -21 -9 -35 -20z"/>
<path d="M4930 2850 c-14 -11 -21 -20 -17 -20 11 0 67 29 67 35 0 11 -27 3
-50 -15z"/>
<path d="M5176 2848 c3 -4 9 -8 15 -8 5 0 9 4 9 8 0 5 -7 9 -15 9 -8 0 -12 -4
-9 -9z"/>
<path d="M4908 2813 c12 -2 30 -2 40 0 9 3 -1 5 -23 4 -22 0 -30 -2 -17 -4z"/>
<path d="M4776 2777 c-16 -11 -15 -13 8 -15 19 -1 24 2 20 13 -7 18 -6 18 -28
2z"/>
<path d="M4908 2763 c7 -3 16 -2 19 1 4 3 -2 6 -13 5 -11 0 -14 -3 -6 -6z"/>
<path d="M3846 3112 c-3 -5 6 -20 18 -35 18 -21 25 -24 29 -13 4 9 -2 16 -15
19 -14 4 -19 11 -15 21 7 16 -8 23 -17 8z"/>
<path d="M4136 2935 c4 -8 8 -15 10 -15 2 0 4 7 4 15 0 8 -4 15 -10 15 -5 0
-7 -7 -4 -15z"/>
<path d="M3856 2841 c-3 -5 1 -11 9 -15 8 -3 15 -1 15 4 0 13 -18 22 -24 11z"/>
<path d="M3545 2820 c-4 -6 3 -10 14 -10 25 0 27 6 6 13 -8 4 -17 2 -20 -3z"/>
<path d="M3685 2810 c-3 -4 2 -11 11 -14 22 -8 34 -7 34 3 0 12 -39 21 -45 11z"/>
<path d="M3643 2763 c9 -2 23 -2 30 0 6 3 -1 5 -18 5 -16 0 -22 -2 -12 -5z"/>
<path d="M3935 2740 c3 -5 11 -10 16 -10 6 0 7 5 4 10 -3 6 -11 10 -16 10 -6
0 -7 -4 -4 -10z"/>
<path d="M4931 2524 c0 -11 3 -14 6 -6 3 7 2 16 -1 19 -3 4 -6 -2 -5 -13z"/>
<path d="M4995 2370 c-4 -6 6 -10 22 -10 22 0 25 2 13 10 -19 12 -27 12 -35 0z"/>
<path d="M3585 2330 c-3 -5 1 -10 10 -10 9 0 13 5 10 10 -3 6 -8 10 -10 10 -2
0 -7 -4 -10 -10z"/>
<path d="M3768 1533 c6 -2 18 -2 25 0 6 3 1 5 -13 5 -14 0 -19 -2 -12 -5z"/>
<path d="M3268 3853 c6 -2 18 -2 25 0 6 3 1 5 -13 5 -14 0 -19 -2 -12 -5z"/>
<path d="M5406 3844 c-3 -7 -17 -16 -31 -20 -14 -3 -25 -10 -25 -16 0 -5 -5
-6 -10 -3 -6 3 -13 0 -16 -8 -3 -9 -16 -18 -30 -21 -24 -6 -34 -26 -12 -26 9
0 9 -3 0 -12 -10 -10 -14 -10 -21 0 -5 9 -17 5 -44 -15 -20 -16 -39 -34 -42
-42 -5 -12 -3 -12 11 0 10 8 20 14 23 14 3 0 5 4 3 8 -1 5 3 7 10 4 14 -4 104
39 114 54 3 5 17 9 31 9 18 0 24 4 20 14 -4 10 0 14 14 13 10 -1 19 -5 19 -9
0 -4 7 -8 16 -8 8 0 12 5 9 10 -12 19 14 10 46 -17 25 -21 31 -24 26 -10 -4
10 -7 21 -7 23 0 3 -5 2 -12 -2 -8 -5 -9 -2 -5 10 5 13 -1 24 -20 40 -32 25
-60 29 -67 10z m-91 -84 c3 -5 1 -10 -4 -10 -6 0 -11 5 -11 10 0 6 2 10 4 10
3 0 8 -4 11 -10z"/>
<path d="M5428 3734 c19 -9 14 -41 -8 -47 -10 -3 -21 0 -24 7 -3 7 -5 7 -5 -1
-1 -7 -6 -13 -13 -13 -6 0 -20 -7 -30 -17 -19 -17 -23 -11 -19 27 2 13 1 13
-8 0 -5 -8 -7 -18 -5 -22 3 -4 0 -8 -6 -8 -6 0 -9 -4 -5 -9 6 -10 37 -7 58 6
13 8 16 9 60 19 31 7 36 -7 10 -27 -17 -13 -17 -13 -3 5 8 11 11 17 5 14 -5
-2 -29 -13 -52 -23 -24 -10 -43 -25 -43 -33 0 -11 -3 -12 -14 -3 -11 9 -15 9
-18 -1 -4 -10 -8 -10 -20 -1 -12 11 -17 8 -28 -15 -25 -48 -30 -53 -52 -41
-15 8 -17 13 -7 25 6 8 17 14 25 14 7 0 15 4 19 9 6 11 -41 8 -52 -2 -3 -4
-16 -7 -29 -7 -12 0 -24 -5 -26 -11 -3 -9 -22 -16 -51 -18 -5 -1 -7 -7 -4 -13
2 -7 -8 -19 -22 -26 -25 -12 -25 -12 -2 -8 16 3 20 1 14 -5 -5 -5 -23 -12 -38
-15 -37 -7 -47 -13 -39 -26 4 -6 2 -8 -3 -5 -6 4 -16 0 -23 -8 -13 -16 -9 -16
38 2 9 3 21 7 25 7 4 1 11 6 15 13 8 13 55 33 78 33 9 0 12 -5 8 -12 -4 -6 -3
-8 3 -5 5 3 36 10 69 16 32 5 82 19 109 31 43 19 47 23 30 30 -19 8 -19 9 3 9
13 1 21 5 18 9 -2 4 4 8 15 8 10 0 19 -3 19 -7 0 -10 -52 -59 -62 -59 -5 0 -7
-4 -4 -9 3 -5 -25 -14 -62 -21 -37 -6 -80 -21 -96 -33 -18 -12 -48 -21 -75
-22 -55 -3 -82 -13 -99 -37 -7 -10 -23 -23 -35 -30 -20 -10 -21 -10 -9 5 23
28 3 39 -29 17 -19 -14 -29 -17 -29 -9 0 7 -11 -2 -25 -21 -14 -19 -31 -37
-37 -42 -10 -6 -10 -8 0 -8 6 0 12 -6 12 -14 0 -9 11 -4 30 14 30 28 43 53 16
31 -9 -7 -17 -8 -20 -3 -7 12 22 25 35 16 5 -3 9 -11 9 -19 0 -8 7 -11 19 -8
11 3 21 -2 25 -13 5 -13 4 -15 -8 -5 -11 9 -20 4 -45 -24 -17 -20 -31 -41 -31
-48 0 -7 7 -3 15 7 8 11 15 16 15 12 0 -5 7 -3 15 4 8 7 15 9 15 5 0 -5 9 0
20 10 13 12 20 14 20 5 0 -10 4 -9 17 1 14 12 16 12 8 0 -6 -11 -3 -13 14 -8
16 4 21 2 18 -7 -4 -10 9 -12 56 -8 34 2 64 6 66 7 2 2 -12 9 -30 14 -31 10
-29 10 19 6 43 -5 52 -3 52 10 0 13 3 14 23 3 12 -7 24 -13 27 -13 3 -1 15 -5
28 -9 27 -9 54 8 45 30 -3 8 -2 14 3 13 30 -5 53 2 48 16 -4 10 0 15 16 15 12
0 31 5 42 11 18 10 20 9 15 -6 -4 -9 -7 -19 -7 -21 0 -2 -7 -4 -15 -4 -8 0
-15 -8 -15 -19 0 -14 -6 -17 -27 -14 -16 3 -24 1 -18 -4 6 -4 10 -18 9 -30 -1
-26 11 -31 20 -8 3 8 12 12 21 9 10 -4 15 0 15 10 0 9 5 16 10 16 6 0 10 7 10
16 0 8 5 12 10 9 6 -3 10 2 10 13 0 29 41 77 51 61 4 -7 3 -19 -3 -26 -7 -9
-7 -13 0 -13 20 0 24 21 9 44 -9 13 -12 28 -7 37 10 18 19 119 11 119 -3 0 -6
27 -6 61 -1 59 0 60 25 55 14 -3 19 -3 13 0 -7 3 -13 12 -13 20 0 8 -6 13 -12
12 -7 -2 -12 2 -11 9 1 6 -4 14 -12 17 -8 3 -14 2 -14 -2 4 -23 -4 -32 -28
-31 l-28 1 25 7 c28 8 20 15 -25 24 -16 4 -24 4 -17 1z m-149 -155 c-16 -10
-23 -4 -14 10 3 6 11 8 17 5 6 -4 5 -9 -3 -15z m131 -34 c0 -8 -9 -15 -20 -15
-17 0 -19 2 -8 15 17 19 28 19 28 0z m-180 -15 c11 -7 6 -10 -22 -11 -21 -1
-44 -2 -50 -3 -29 -5 -31 9 -3 15 45 10 58 10 75 -1z m176 -45 c-11 -8 -24
-15 -28 -15 -5 0 -21 -8 -35 -17 -14 -10 -37 -19 -49 -20 -13 -2 -42 -10 -65
-18 -53 -19 -84 -19 -44 0 l30 15 -32 -6 c-19 -3 -33 -1 -33 4 0 14 25 22 65
22 18 0 42 3 52 7 16 6 15 8 -7 14 -18 5 -8 8 35 9 33 1 65 2 72 1 6 -1 14 3
18 9 3 5 14 10 23 10 15 -1 15 -2 -2 -15z m49 -74 c3 -5 2 -12 -3 -15 -5 -3
-9 1 -9 9 0 17 3 19 12 6z m-325 -31 c0 -5 -7 -10 -16 -10 -8 0 -12 5 -9 10 3
6 10 10 16 10 5 0 9 -4 9 -10z m137 -16 c-3 -3 -12 -4 -19 -1 -8 3 -5 6 6 6
11 1 17 -2 13 -5z m83 -4 c12 -8 9 -10 -12 -10 -15 0 -30 5 -33 10 -8 13 25
13 45 0z m-470 -24 c0 -2 -7 -7 -16 -10 -8 -3 -12 -2 -9 4 6 10 25 14 25 6z
m430 -5 c0 -12 -20 -25 -27 -18 -7 7 6 27 18 27 5 0 9 -4 9 -9z"/>
<path d="M3290 3668 c0 -9 12 -14 35 -15 32 -1 34 1 18 12 -11 8 -19 10 -21 4
-3 -6 -10 -5 -18 2 -11 9 -14 8 -14 -3z"/>
<path d="M5275 3670 c-3 -5 -2 -10 4 -10 5 0 13 5 16 10 3 6 2 10 -4 10 -5 0
-13 -4 -16 -10z"/>
<path d="M3405 3659 c3 -4 -5 -9 -17 -12 -21 -3 -21 -4 -5 -11 12 -6 24 -3 37
9 18 16 20 17 20 2 0 -10 7 -17 15 -17 18 0 20 29 3 31 -7 1 -23 3 -35 4 -12
1 -20 -1 -18 -6z"/>
<path d="M5137 3653 c7 -2 9 -12 6 -21 -6 -18 -5 -17 14 8 10 13 8 16 -10 17
-12 0 -17 -1 -10 -4z"/>
<path d="M3486 3642 c-3 -5 1 -9 9 -9 8 0 12 4 9 9 -3 4 -7 8 -9 8 -2 0 -6 -4
-9 -8z"/>
<path d="M5100 3629 c0 -5 4 -8 9 -5 5 4 12 0 14 -6 3 -8 6 -6 6 5 1 9 -6 17
-14 17 -8 0 -15 -5 -15 -11z"/>
<path d="M3310 3610 c0 -6 4 -9 8 -6 4 2 14 1 22 -5 12 -7 10 -9 -7 -9 -23 0
-32 -23 -13 -35 6 -4 8 -10 6 -14 -8 -12 14 -82 24 -76 4 3 6 -3 4 -12 -9 -39
11 -48 111 -49 52 0 95 4 95 9 0 4 -4 5 -10 2 -5 -3 -10 -2 -10 4 0 5 18 9 41
8 29 -1 44 -7 51 -20 8 -15 7 -18 -4 -11 -11 6 -11 5 1 -9 12 -15 11 -17 -8
-17 -12 0 -20 -4 -17 -9 5 -8 -38 -21 -70 -21 -26 0 -14 18 17 24 18 3 28 10
24 17 -9 14 -52 3 -83 -22 l-25 -19 29 0 29 -1 -26 -14 c-14 -7 -34 -12 -45
-10 -10 2 -27 4 -36 4 -10 1 -18 5 -18 10 0 11 40 26 55 22 6 -1 6 1 2 5 -5 5
-25 14 -46 20 l-38 11 15 -51 c18 -62 26 -73 47 -56 8 7 15 10 15 7 0 -3 13
-1 30 4 16 6 28 15 25 19 -6 10 24 22 36 14 6 -3 16 -1 23 5 15 13 49 4 40
-10 -3 -5 -9 -7 -12 -5 -4 2 -18 -2 -32 -10 -23 -13 -21 -14 30 -8 30 4 65 8
77 9 31 2 42 15 14 15 -14 0 -20 4 -15 12 5 8 0 9 -16 5 -18 -5 -20 -3 -11 6
13 13 81 17 81 4 0 -5 5 -5 10 -2 17 11 11 28 -9 22 -10 -2 -25 -1 -32 4 -10
6 -7 10 11 17 19 7 30 6 44 -7 18 -15 19 -15 14 17 -3 22 -1 32 9 32 7 0 13
-4 13 -10 0 -5 5 -10 10 -10 6 0 6 7 -2 19 -9 16 -16 17 -35 8 -16 -7 -20 -14
-13 -22 7 -8 2 -10 -20 -7 -17 2 -33 9 -37 15 -4 6 2 8 15 5 12 -4 22 -2 22 3
0 5 -15 9 -32 9 -18 0 -57 0 -87 0 -29 0 -61 -5 -71 -10 -24 -13 -53 -13 -45
0 8 13 -68 13 -81 0 -6 -6 -10 -4 -10 8 0 15 9 17 66 15 45 -2 59 0 45 6 -11
5 -35 10 -54 10 -19 1 -32 3 -30 5 4 5 106 14 162 15 17 1 26 5 22 12 -5 7
-34 9 -84 5 -49 -3 -71 -2 -61 4 8 5 26 6 39 3 17 -4 22 -2 17 6 -4 6 -1 11 8
11 9 0 16 5 16 11 0 5 -4 7 -10 4 -5 -3 -10 -2 -10 3 0 5 20 8 44 7 40 -1 44
1 35 17 -5 10 -16 15 -24 12 -8 -4 -15 -2 -15 4 0 5 -11 12 -24 14 -28 6 -26
-18 2 -26 10 -2 -5 -2 -33 1 -27 3 -54 9 -60 13 -26 19 -135 35 -135 20z m187
-56 c5 -14 -50 -26 -73 -17 -9 3 -30 7 -48 8 -45 4 -46 4 -46 15 0 13 163 7
167 -6z"/>
<path d="M3460 3610 c0 -5 7 -10 16 -10 8 0 12 5 9 10 -3 6 -10 10 -16 10 -5
0 -9 -4 -9 -10z"/>
<path d="M5060 3609 c0 -5 -4 -8 -9 -4 -15 9 -23 -13 -12 -32 6 -11 11 -13 11
-5 0 7 5 10 10 7 13 -8 40 12 40 29 0 6 -7 3 -14 -6 -18 -24 -29 -23 -21 2 3
11 4 20 1 20 -3 0 -6 -5 -6 -11z"/>
<path d="M5148 3603 c7 -3 16 -2 19 1 4 3 -2 6 -13 5 -11 0 -14 -3 -6 -6z"/>
<path d="M5561 3534 c0 -11 3 -14 6 -6 3 7 2 16 -1 19 -3 4 -6 -2 -5 -13z"/>
<path d="M3578 3533 c7 -3 16 -2 19 1 4 3 -2 6 -13 5 -11 0 -14 -3 -6 -6z"/>
<path d="M3650 3530 c13 -9 13 -10 0 -10 -13 0 -13 -2 0 -9 8 -6 18 -7 23 -4
10 6 -11 33 -27 33 -6 0 -4 -5 4 -10z"/>
<path d="M5555 3500 c-3 -5 -1 -10 4 -10 6 0 11 5 11 10 0 6 -2 10 -4 10 -3 0
-8 -4 -11 -10z"/>
<path d="M3707 3480 c10 -11 21 -20 25 -20 4 0 0 9 -9 20 -10 11 -21 20 -25
20 -4 0 0 -9 9 -20z"/>
<path d="M3595 3470 c-7 -11 9 -11 45 0 24 8 24 8 -7 9 -17 1 -35 -3 -38 -9z"/>
<path d="M5513 3338 c-20 -26 -23 -48 -7 -48 11 0 13 6 9 20 -4 14 -2 20 9 20
8 0 18 5 21 10 9 15 -21 12 -32 -2z"/>
<path d="M4821 3286 c-14 -17 -36 -22 -26 -6 3 5 0 7 -9 4 -8 -3 -17 -12 -20
-20 -4 -10 -2 -13 7 -8 6 4 2 -3 -10 -15 -39 -38 -25 -45 16 -8 21 19 44 36
51 39 7 2 11 10 9 17 -4 10 -8 9 -18 -3z"/>
<path d="M5469 3252 c-7 -15 -15 -31 -18 -37 -8 -17 30 17 40 36 5 10 5 20 1
23 -5 3 -15 -7 -23 -22z"/>
<path d="M3351 3226 c-15 -8 -20 -16 -12 -20 6 -4 11 -2 11 4 0 6 3 9 8 6 4
-2 16 2 27 10 25 18 -1 18 -34 0z"/>
<path d="M3530 3226 c0 -17 17 -31 49 -41 16 -5 21 -4 17 4 -4 6 -2 11 4 11 6
0 8 5 5 10 -3 6 -17 10 -31 10 -13 0 -24 5 -24 10 0 6 -4 10 -10 10 -5 0 -10
-6 -10 -14z"/>
<path d="M4950 3179 c0 -5 5 -7 10 -4 6 3 10 8 10 11 0 2 -4 4 -10 4 -5 0 -10
-5 -10 -11z"/>
<path d="M3570 3146 c0 -2 9 -6 20 -9 11 -3 20 -1 20 4 0 5 -9 9 -20 9 -11 0
-20 -2 -20 -4z"/>
<path d="M5460 2450 c-9 -6 -10 -10 -3 -10 6 0 15 5 18 10 8 12 4 12 -15 0z"/>
<path d="M4695 2400 c-3 -5 1 -10 9 -10 9 0 16 5 16 10 0 6 -4 10 -9 10 -6 0
-13 -4 -16 -10z"/>
<path d="M3905 2380 c3 -4 14 -10 25 -13 11 -3 18 -2 15 3 -3 4 -14 10 -25 13
-11 3 -18 2 -15 -3z"/>
<path d="M3730 2279 c0 -5 5 -7 10 -4 6 3 10 8 10 11 0 2 -4 4 -10 4 -5 0 -10
-5 -10 -11z"/>
<path d="M4000 2260 l-55 -6 37 -8 c21 -5 46 -5 55 -1 10 5 26 7 36 6 9 -1 17
0 17 2 0 9 -37 12 -90 7z"/>
<path d="M4527 2258 c-9 -6 -8 -10 3 -17 8 -5 18 -7 22 -4 12 7 39 -17 32 -28
-3 -5 -1 -9 4 -9 17 0 21 13 10 34 -10 20 -10 20 8 5 10 -9 30 -19 44 -21 14
-3 34 -9 45 -13 11 -3 -4 8 -33 25 -51 31 -111 43 -135 28z"/>
<path d="M4035 2190 c3 -5 8 -10 11 -10 2 0 4 5 4 10 0 6 -5 10 -11 10 -5 0
-7 -4 -4 -10z"/>
<path d="M4575 2182 c-14 -15 -1 -23 26 -17 22 5 29 4 25 -4 -4 -6 -2 -11 4
-11 6 0 10 8 8 17 -3 16 -51 27 -63 15z"/>
<path d="M4045 2140 c-4 -6 3 -10 14 -10 25 0 27 6 6 13 -8 4 -17 2 -20 -3z"/>
<path d="M4008 2133 c7 -3 16 -2 19 1 4 3 -2 6 -13 5 -11 0 -14 -3 -6 -6z"/>
<path d="M4559 2127 c6 -8 8 -16 5 -20 -3 -3 3 -3 15 0 12 3 21 1 21 -6 0 -6
5 -11 11 -11 8 0 8 5 -1 15 -7 8 -19 15 -26 15 -8 0 -14 5 -14 10 0 6 -5 10
-11 10 -8 0 -9 -4 0 -13z"/>
<path d="M4870 1779 c0 -5 5 -7 10 -4 6 3 10 8 10 11 0 2 -4 4 -10 4 -5 0 -10
-5 -10 -11z"/>
<path d="M4319 1753 c-1 -5 -1 -12 0 -17 1 -5 -7 -15 -17 -22 -31 -21 -34 -51
-6 -57 20 -4 22 -2 13 16 -7 13 -8 17 -1 13 6 -3 22 4 36 17 25 23 25 24 5 40
-21 19 -28 21 -30 10z"/>
<path d="M4529 1740 c26 -22 45 -26 39 -8 -3 7 -18 15 -34 19 l-29 8 24 -19z"/>
<path d="M4130 1715 c-7 -9 -10 -18 -6 -22 3 -3 6 -1 6 5 0 7 9 12 20 12 11 0
20 5 20 10 0 15 -26 12 -40 -5z"/>
<path d="M4930 1330 c0 -5 5 -10 11 -10 5 0 7 5 4 10 -3 6 -8 10 -11 10 -2 0
-4 -4 -4 -10z"/>
<path d="M4493 1226 c3 -8 1 -17 -6 -20 -7 -2 -2 -5 10 -5 16 -1 20 3 16 19
-3 11 -10 20 -15 20 -6 0 -8 -6 -5 -14z"/>
<path d="M3780 1190 c0 -5 7 -7 15 -4 8 4 15 8 15 10 0 2 -7 4 -15 4 -8 0 -15
-4 -15 -10z"/>
<path d="M3608 1183 c7 -3 16 -2 19 1 4 3 -2 6 -13 5 -11 0 -14 -3 -6 -6z"/>
<path d="M4462 1164 c-19 -26 -21 -27 -17 -6 5 27 -6 28 -36 1 l-24 -20 25 5
c14 3 19 3 13 0 -19 -9 -16 -37 3 -30 9 3 29 6 46 6 20 0 29 4 25 13 -3 8 5
14 21 15 35 3 39 9 19 29 -16 16 -17 16 -17 0 0 -21 -9 -22 -25 -1 -10 15 -14
13 -33 -12z"/>
<path d="M3575 1171 c-3 -6 -11 -9 -16 -6 -5 4 -9 2 -9 -4 0 -5 -6 -11 -12
-14 -7 -2 -2 -2 12 0 28 5 47 19 38 28 -3 4 -9 1 -13 -4z"/>
<path d="M3616 1133 c-15 -8 -34 -12 -41 -9 -10 3 -16 -8 -22 -42 -10 -65 -10
-67 8 -64 27 4 69 -42 62 -68 -4 -15 -2 -21 4 -17 7 5 9 -1 6 -14 -3 -11 -12
-23 -19 -26 -22 -8 -16 -22 6 -16 11 3 20 9 20 13 0 5 14 17 32 28 24 15 37
18 50 11 20 -11 39 2 50 33 9 22 -21 17 -34 -5 -14 -27 -29 -20 -22 9 5 21 4
25 -6 19 -9 -5 -11 -4 -6 4 6 8 11 9 20 2 10 -8 18 -5 31 9 10 11 14 20 10 20
-4 0 0 10 11 22 19 21 19 21 -3 16 -13 -4 -25 -2 -28 2 -7 11 -92 -37 -104
-58 -5 -9 -13 -14 -17 -9 -4 4 1 16 11 27 22 24 14 36 -14 20 -16 -8 -21 -8
-21 2 0 23 17 41 30 33 9 -5 11 -4 6 4 -4 6 1 19 13 29 16 14 18 19 7 28 -9 9
-19 8 -40 -3z m54 -187 c0 -3 -4 -8 -10 -11 -5 -3 -10 -1 -10 4 0 6 5 11 10
11 6 0 10 -2 10 -4z"/>
<path d="M3690 1140 c-13 -8 -13 -10 2 -10 9 0 20 5 23 10 8 13 -5 13 -25 0z"/>
<path d="M4556 1125 c4 -8 11 -15 16 -15 6 0 5 6 -2 15 -7 8 -14 15 -16 15 -2
0 -1 -7 2 -15z"/>
<path d="M3756 1094 c-8 -20 -4 -25 11 -16 7 4 9 13 4 21 -6 10 -10 9 -15 -5z"/>
<path d="M3673 1084 c0 -7 6 -10 14 -7 7 3 13 8 13 12 0 4 -6 8 -13 8 -8 0
-14 -6 -14 -13z"/>
<path d="M4565 1090 c-3 -6 -9 -8 -13 -6 -4 2 -8 -9 -9 -25 -1 -16 2 -29 7
-29 6 0 10 11 10 24 0 13 6 23 13 22 15 -1 23 17 9 22 -6 2 -13 -2 -17 -8z"/>
<path d="M4754 1080 c1 -8 -4 -19 -11 -25 -10 -7 -7 -10 12 -10 14 0 25 6 25
13 0 6 -4 12 -9 12 -5 0 -11 6 -14 13 -2 7 -3 5 -3 -3z"/>
<path d="M4855 1070 c3 -5 8 -10 11 -10 2 0 4 5 4 10 0 6 -5 10 -11 10 -5 0
-7 -4 -4 -10z"/>
<path d="M4500 1059 c0 -15 -26 -39 -34 -32 -12 12 -5 -12 8 -30 12 -16 14
-16 20 -1 3 9 4 20 0 25 -3 5 -1 9 5 9 5 0 13 -4 16 -10 12 -19 22 -10 18 14
-5 24 -33 45 -33 25z"/>
<path d="M4635 1051 c-3 -10 -4 -25 -3 -32 6 -26 -28 -19 -39 8 l-12 28 4 -32
c1 -17 -3 -40 -11 -52 -9 -12 -10 -22 -5 -26 6 -3 8 -12 5 -20 -5 -12 -10 -10
-25 8 l-19 22 3 -30 c3 -28 6 -30 47 -30 34 0 45 4 53 22 6 14 15 19 25 16 9
-4 13 -2 9 4 -4 6 0 16 8 23 13 11 14 10 9 -4 -3 -9 -1 -16 5 -16 6 0 11 9 11
20 0 11 -6 20 -14 20 -16 0 -41 54 -32 69 4 5 2 12 -3 15 -5 4 -12 -2 -16 -13z"/>
<path d="M3775 1030 c-3 -5 -2 -10 4 -10 5 0 13 5 16 10 3 6 2 10 -4 10 -5 0
-13 -4 -16 -10z"/>
<path d="M4796 1018 c3 -5 10 -6 15 -3 13 9 11 12 -6 12 -8 0 -12 -4 -9 -9z"/>
<path d="M4303 1014 c3 -4 1 -16 -6 -28 -17 -31 -17 -56 2 -56 13 0 17 11 19
45 1 28 -3 45 -10 45 -6 0 -8 -3 -5 -6z"/>
<path d="M3820 983 c-11 -13 -24 -23 -30 -23 -6 0 -8 -11 -6 -25 3 -17 0 -25
-10 -25 -28 0 -14 -15 15 -16 26 -1 28 1 15 14 -11 11 -12 17 -3 28 6 8 17 14
24 14 22 0 36 25 22 39 -9 10 -9 11 4 6 10 -4 19 -3 22 2 12 20 -35 7 -53 -14z"/>
<path d="M3890 960 c0 -5 -7 -7 -15 -4 -9 4 -15 0 -15 -9 0 -9 -5 -19 -12 -23
-7 -5 -8 -3 -3 7 8 12 6 12 -9 0 -12 -10 -14 -16 -5 -21 7 -5 8 -13 3 -21 -4
-8 9 -1 29 14 20 15 41 26 46 22 5 -3 11 0 13 7 2 6 12 12 22 14 15 2 13 -3
-10 -27 -36 -38 -25 -48 15 -12 20 18 28 32 23 40 -9 15 -82 26 -82 13z"/>
<path d="M4722 959 c2 -7 10 -15 17 -17 8 -3 12 1 9 9 -2 7 -10 15 -17 17 -8
3 -12 -1 -9 -9z"/>
<path d="M4020 945 c-9 -10 -17 -12 -24 -6 -9 7 -12 3 -12 -14 0 -14 3 -25 6
-25 7 0 33 27 44 48 10 17 1 15 -14 -3z"/>
<path d="M3687 906 c-4 -10 0 -12 14 -9 27 7 34 23 11 23 -11 0 -22 -6 -25
-14z"/>
<path d="M4290 910 c-13 -8 -12 -10 3 -10 9 0 17 5 17 10 0 12 -1 12 -20 0z"/>
</g>
</svg>
